<svg xmlns="http://www.w3.org/2000/svg"  viewBox="0 0 100 100" width="100px" height="100px"><path d="M 50 14 C 30.129581 14 14 30.129595 14 50 C 14 69.870405 30.129581 86 50 86 C 69.870419 86 86 69.870405 86 50 C 86 30.129595 69.870419 14 50 14 z M 50 16 C 68.78954 16 84 31.210473 84 50 C 84 68.789527 68.78954 84 50 84 C 31.21046 84 16 68.789527 16 50 C 16 31.210473 31.21046 16 50 16 z M 50 19 C 32.884791 19 19 32.884791 19 50 C 19 67.115209 32.884791 81 50 81 C 67.115209 81 81 67.115209 81 50 C 81 40.904382 77.079076 32.716819 70.835938 27.046875 A 0.50005 0.50005 0 1 0 70.164062 27.787109 C 76.206924 33.275165 80 41.191618 80 50 C 80 66.574791 66.574791 80 50 80 C 33.425209 80 20 66.574791 20 50 C 20 33.425209 33.425209 20 50 20 C 53.630741 20 57.108062 20.645941 60.328125 21.826172 A 0.50018397 0.50018397 0 1 0 60.671875 20.886719 C 57.343938 19.66695 53.749259 19 50 19 z M 63.480469 22.140625 A 0.50005 0.50005 0 0 0 63.277344 23.091797 C 63.947092 23.423229 64.604492 23.779343 65.246094 24.158203 A 0.50005 0.50005 0 1 0 65.753906 23.296875 C 65.091508 22.905735 64.414908 22.53788 63.722656 22.195312 A 0.50005 0.50005 0 0 0 63.480469 22.140625 z M 67.507812 24.511719 A 0.50005 0.50005 0 0 0 67.457031 24.513672 A 0.50005 0.50005 0 0 0 67.212891 25.425781 C 67.545583 25.65906 67.873213 25.899999 68.195312 26.146484 A 0.50080937 0.50080937 0 1 0 68.804688 25.351562 C 68.470787 25.096048 68.130417 24.848143 67.787109 24.607422 A 0.50005 0.50005 0 0 0 67.507812 24.511719 z M 50.128906 32.591797 C 48.861906 32.591797 47.751219 33.005266 46.824219 33.822266 C 45.881219 34.655266 45.402344 35.700734 45.402344 36.927734 C 45.402344 37.544734 45.534875 38.128156 45.796875 38.660156 C 46.050875 39.179156 46.393406 39.638344 46.816406 40.027344 C 47.236406 40.413344 47.733016 40.726031 48.291016 40.957031 C 48.856016 41.192031 49.474906 41.310547 50.128906 41.310547 C 51.434906 41.310547 52.551266 40.877484 53.447266 40.021484 C 54.348266 39.158484 54.804687 38.117734 54.804688 36.927734 C 54.804688 35.733734 54.336062 34.699562 53.414062 33.851562 C 52.503062 33.015563 51.398906 32.591797 50.128906 32.591797 z M 50.130859 33.591797 C 51.156859 33.591797 52.008281 33.918844 52.738281 34.589844 C 53.456281 35.249844 53.806641 36.014688 53.806641 36.929688 C 53.806641 37.848687 53.463812 38.624781 52.757812 39.300781 C 52.044812 39.982781 51.184859 40.3125 50.130859 40.3125 C 49.608859 40.3125 49.117828 40.220156 48.673828 40.035156 C 48.223828 39.848156 47.827141 39.599922 47.494141 39.294922 C 47.163141 38.990922 46.894312 38.630656 46.695312 38.222656 C 46.502313 37.826656 46.402344 37.391687 46.402344 36.929688 C 46.402344 35.988687 46.756328 35.216266 47.486328 34.572266 C 48.234328 33.911266 49.099859 33.591797 50.130859 33.591797 z M 42.757812 44.013672 C 42.481812 44.013672 42.257812 44.237672 42.257812 44.513672 L 42.257812 47.087891 C 42.257812 47.363891 42.481812 47.587891 42.757812 47.587891 C 46.390813 47.587891 46.390625 48.797313 46.390625 49.195312 L 46.390625 62.919922 C 46.390625 63.328922 46.390812 64.419922 42.757812 64.419922 C 42.481812 64.419922 42.257813 64.643922 42.257812 64.919922 L 42.257812 67.492188 C 42.257812 67.768187 42.481812 67.992188 42.757812 67.992188 L 57.765625 67.992188 C 58.041625 67.992188 58.265625 67.768187 58.265625 67.492188 L 58.265625 64.919922 C 58.265625 64.643922 58.041625 64.419922 57.765625 64.419922 C 56.038625 64.419922 54.931656 64.173406 54.472656 63.691406 C 54.282656 63.491406 54.20175 63.243156 54.21875 62.910156 L 54.21875 62.886719 L 54.21875 44.513672 C 54.21875 44.237672 53.99475 44.013672 53.71875 44.013672 L 42.757812 44.013672 z M 43.257812 45.013672 L 53.216797 45.013672 L 53.216797 62.876953 C 53.189797 63.479953 53.367094 63.985813 53.746094 64.382812 C 54.364094 65.031813 55.488625 65.361109 57.265625 65.412109 L 57.265625 66.992188 L 43.257812 66.992188 L 43.257812 65.414062 C 44.685812 65.383062 47.390625 65.121922 47.390625 62.919922 L 47.390625 49.195312 C 47.390625 47.560313 46.000812 46.687703 43.257812 46.595703 L 43.257812 45.013672 z"/></svg>